<svg width="126" height="125" viewBox="0 0 126 125" fill="none" xmlns="http://www.w3.org/2000/svg">
<path d="M64.6318 68.2196C64.4005 68.1695 64.1633 68.1605 63.929 68.1956C61.5813 67.9222 59.8103 65.936 59.8063 63.5732C59.8063 62.4409 58.8882 61.5229 57.7559 61.5229C56.6236 61.5229 55.7055 62.4409 55.7055 63.5732C55.7115 67.5188 58.3506 70.9748 62.155 72.019V74.0693C62.155 75.2016 63.073 76.1197 64.2053 76.1197C65.3376 76.1197 66.2557 75.2016 66.2557 74.0693V72.1431C70.6467 71.224 73.6312 67.1343 73.1696 62.6722C72.7071 58.2101 68.9478 54.8192 64.4616 54.8182C61.8907 54.8182 59.8063 52.7338 59.8063 50.1628C59.8063 47.5918 61.8907 45.5074 64.4616 45.5074C67.0326 45.5074 69.117 47.5918 69.117 50.1628C69.117 51.2951 70.035 52.2132 71.1673 52.2132C72.2996 52.2132 73.2177 51.2951 73.2177 50.1628C73.2117 46.02 70.3094 42.4469 66.2557 41.5919V39.7258C66.2557 38.5935 65.3376 37.6754 64.2053 37.6754C63.073 37.6754 62.155 38.5935 62.155 39.7258V41.7171C57.9241 42.8724 55.201 46.9801 55.7836 51.3271C56.3663 55.6741 60.0756 58.9189 64.4616 58.9179C66.9985 58.9179 69.0679 60.9492 69.114 63.4851C69.161 66.0211 67.1667 68.1275 64.6318 68.2196Z" fill="#02ADEA"/>
<path d="M34.7295 57.0257C34.7295 73.4466 48.0408 86.7579 64.4617 86.7579C80.8826 86.7579 94.194 73.4466 94.194 57.0257C94.194 40.6048 80.8826 27.2935 64.4617 27.2935C48.0488 27.3115 34.7485 40.6128 34.7295 57.0257ZM64.4617 31.3942C78.618 31.3942 90.0932 42.8694 90.0932 57.0257C90.0932 71.182 78.618 82.6572 64.4617 82.6572C50.3054 82.6572 38.8302 71.182 38.8302 57.0257C38.8462 42.8764 50.3124 31.4102 64.4617 31.3942Z" fill="#02ADEA"/>
<path d="M104.301 91.8127L88.24 99.4015C86.0224 95.2767 81.7685 92.6517 77.0871 92.5196L62.2601 92.1121C59.9124 92.045 57.6087 91.4503 55.5213 90.3721L54.0126 89.5902C46.2877 85.5636 37.0801 85.5736 29.3632 89.6162L29.4573 86.1983C29.4883 85.066 28.5963 84.1229 27.464 84.0919L11.2053 83.6443C10.073 83.6133 9.1309 84.5053 9.09986 85.6376L8.11773 121.317C8.08669 122.449 8.97872 123.392 10.111 123.423L26.3697 123.871H26.4258C27.5371 123.871 28.4461 122.987 28.4762 121.876L28.5232 120.169L32.7471 117.908C34.405 117.016 36.3432 116.804 38.1543 117.316L63.3774 124.395C63.4214 124.408 63.4655 124.418 63.5105 124.428C65.3336 124.81 67.1917 125.001 69.0539 125C72.9984 125.002 76.8969 124.152 80.482 122.506C80.5702 122.466 80.6553 122.419 80.7363 122.366L117.307 98.7107C118.219 98.121 118.513 96.9246 117.979 95.9795C115.264 91.162 109.242 89.3269 104.301 91.8127ZM12.2735 119.38L13.1425 87.8001L25.3015 88.1345L24.4325 119.716L12.2735 119.38ZM78.6349 118.844C74.1808 120.854 69.2061 121.409 64.4186 120.431L39.2636 113.37C36.4323 112.57 33.4018 112.901 30.8119 114.294L28.6534 115.45L29.231 94.4528C36.0709 89.9035 44.843 89.436 52.1274 93.2314L53.6361 94.0133C56.2732 95.3748 59.1815 96.1257 62.1479 96.2118L76.976 96.6193C81.1408 96.7394 84.6779 99.7048 85.5229 103.786L63.4364 103.176C62.3041 103.145 61.362 104.038 61.33 105.169C61.299 106.301 62.192 107.245 63.3233 107.276L87.6974 107.946H87.7544C88.8647 107.945 89.7728 107.061 89.8028 105.952C89.8278 105.061 89.7617 104.169 89.6046 103.292L106.079 95.508C106.095 95.501 106.111 95.493 106.127 95.485C108.463 94.3026 111.289 94.6981 113.211 96.4771L78.6349 118.844Z" fill="#02ADEA"/>
<path d="M66.5121 21.5288V2.05036C66.5121 0.918057 65.594 0 64.4617 0C63.3294 0 62.4114 0.918057 62.4114 2.05036V21.5288C62.4114 22.6611 63.3294 23.5792 64.4617 23.5792C65.594 23.5792 66.5121 22.6611 66.5121 21.5288Z" fill="#02ADEA"/>
<path d="M81.8898 21.5288V12.3022C81.8898 11.1699 80.9717 10.2518 79.8394 10.2518C78.7071 10.2518 77.7891 11.1699 77.7891 12.3022V21.5288C77.7891 22.6611 78.7071 23.5792 79.8394 23.5792C80.9717 23.5792 81.8898 22.6611 81.8898 21.5288Z" fill="#02ADEA"/>
<path d="M51.1344 21.5288V12.3022C51.1344 11.1699 50.2164 10.2518 49.0841 10.2518C47.9517 10.2518 47.0337 11.1699 47.0337 12.3022V21.5288C47.0337 22.6611 47.9517 23.5792 49.0841 23.5792C50.2164 23.5792 51.1344 22.6611 51.1344 21.5288Z" fill="#02ADEA"/>
</svg>
