<svg width="70" height="70" viewBox="0 0 70 70" fill="none" xmlns="http://www.w3.org/2000/svg">
<path d="M69.3427 0.198734C68.9345 -0.0491375 68.4266 -0.0662278 68.0027 0.153889L51.9561 8.48703C51.3996 8.77606 51.1111 9.40674 51.2561 10.0168L51.6048 11.4821L40.6777 8.82377C38.6273 8.32461 36.4763 8.75596 34.7765 10.0067L34.074 10.5236C31.5563 9.02817 28.5504 8.57467 25.6789 9.28561L18.4944 11.0643L18.7436 10.0168C18.8888 9.4066 18.6002 8.77592 18.0436 8.48703L1.99732 0.153889C1.57336 -0.0662278 1.06559 -0.0492743 0.657344 0.198734C0.249238 0.446605 0 0.889572 0 1.36713V25.9462C0 26.5422 0.386094 27.0696 0.954297 27.2495L12.2813 30.8371C12.4161 30.8798 12.5553 30.901 12.6941 30.901C12.9279 30.901 13.1603 30.841 13.3678 30.7235C13.6984 30.5363 13.9363 30.22 14.0242 29.8503L14.2099 29.0698L15.2914 29.5836C14.6829 31.1713 15.0162 33.0404 16.2941 34.3183C17.1369 35.161 18.237 35.5923 19.3438 35.6145C19.3661 36.7214 19.7973 37.8214 20.64 38.6641C21.4828 39.5069 22.5829 39.9382 23.6897 39.9604C23.712 41.0672 24.1432 42.1673 24.9859 43.01C25.8286 43.8528 26.9288 44.2841 28.0355 44.3063C28.0578 45.4131 28.489 46.5132 29.3318 47.3559C30.1975 48.2215 31.3344 48.6543 32.4715 48.6543C33.6086 48.6543 34.7457 48.2215 35.6113 47.3559L37.6713 45.2958C38.2397 44.7275 38.6202 44.0417 38.8154 43.3161C39.2517 43.4538 39.7048 43.5238 40.1583 43.5238C41.2954 43.5238 42.4324 43.091 43.298 42.2254C44.1407 41.3827 44.572 40.2826 44.5942 39.1757C45.7011 39.1535 46.8012 38.7221 47.6439 37.8794C48.4861 37.0372 48.9173 35.9378 48.9401 34.8316C50.0924 34.8088 51.1725 34.3507 51.9899 33.5334C52.8285 32.6947 53.2904 31.5797 53.2904 30.3936C53.2904 30.3709 53.289 30.3485 53.2887 30.3258L55.7955 29.0948L55.9751 29.8499C56.0632 30.2196 56.3009 30.5359 56.6315 30.7231C56.839 30.8407 57.0713 30.9006 57.3053 30.9006C57.4439 30.9006 57.5832 30.8795 57.718 30.8367L69.045 27.2491C69.6132 27.0692 69.9993 26.5418 69.9993 25.9457V1.36713C70 0.889572 69.7508 0.446605 69.3427 0.198734ZM2.73438 24.9451V3.61766L15.8365 10.4219L11.7046 27.7863L2.73438 24.9451ZM18.2278 29.9722L20.2878 27.9122C20.6203 27.5795 21.0571 27.4133 21.4941 27.4133C21.9309 27.4133 22.3677 27.5795 22.7002 27.9122C23.0223 28.2343 23.1999 28.6628 23.1999 29.1183C23.1999 29.574 23.0225 30.0023 22.7002 30.3246L20.6402 32.3847C19.975 33.0499 18.8928 33.0498 18.2278 32.3847C17.5626 31.7197 17.5626 30.6374 18.2278 29.9722ZM22.5738 34.3183L24.6338 32.2582C24.9665 31.9255 25.4033 31.7594 25.8401 31.7594C26.2769 31.7594 26.7139 31.9257 27.0464 32.2582C27.7115 32.9233 27.7115 34.0055 27.0464 34.6706L24.9862 36.7308C24.3212 37.3959 23.2389 37.3961 22.5738 36.7308C21.9086 36.0657 21.9086 34.9834 22.5738 34.3183ZM26.9196 38.6643L28.9799 36.6041C29.3124 36.2714 29.7492 36.1052 30.1861 36.1052C30.6229 36.1052 31.0598 36.2714 31.3923 36.6041C32.0574 37.2692 32.0574 38.3513 31.3923 39.0165L29.3321 41.0767C28.6671 41.7418 27.5848 41.742 26.9196 41.0767C26.2545 40.4115 26.2545 39.3294 26.9196 38.6643ZM35.7383 43.3625L33.6782 45.4226C33.0132 46.0877 31.9308 46.0877 31.2657 45.4226C30.6005 44.7574 30.6005 43.6753 31.2657 43.0102L33.3259 40.9499C33.648 40.6277 34.0765 40.4502 34.532 40.4502C34.9877 40.4502 35.416 40.6277 35.7383 40.9499C36.4034 41.6152 36.4034 42.6975 35.7383 43.3625ZM50.0568 31.6003C49.7347 31.9224 49.3063 32.0999 48.8507 32.0999C48.3953 32.0999 47.9671 31.9225 47.6448 31.6006C47.6447 31.6004 47.6446 31.6003 47.6444 31.6002L40.2653 24.221C39.7314 23.6872 38.8657 23.6872 38.3317 24.221C37.7978 24.7549 37.7978 25.6206 38.3317 26.1546L45.7108 33.5338C46.376 34.1989 46.376 35.2812 45.7108 35.9463C45.0458 36.6116 43.9634 36.6115 43.2984 35.9463L35.9193 28.5672C35.3854 28.0333 34.5197 28.0333 33.9857 28.5672C33.4517 29.1011 33.4518 29.9668 33.9857 30.5008L41.3648 37.8799C41.687 38.202 41.8645 38.6305 41.8645 39.0862C41.8645 39.5419 41.687 39.9702 41.3649 40.2923C40.6998 40.9575 39.6175 40.9573 38.9524 40.2923C38.9524 40.2923 33.4132 34.7581 33.3257 34.6706C32.483 33.8279 31.3828 33.3966 30.2761 33.3745C30.2538 32.2676 29.8226 31.1674 28.9799 30.3247C28.1377 29.4825 27.0385 29.0513 25.9323 29.0286C25.9094 27.8763 25.4513 26.7961 24.6338 25.9788C22.9026 24.2477 20.0856 24.2477 18.3544 25.9788L16.9762 27.357L14.8571 26.3503L17.7822 14.0579L26.3361 11.9401C28.1112 11.5007 29.9534 11.6519 31.6068 12.3394L29.1579 14.1412C27.0912 15.6616 26.5643 18.5401 27.9583 20.6942C28.872 22.1061 30.438 22.9102 32.0514 22.9102C32.6334 22.9102 33.2218 22.8055 33.7877 22.587L41.0793 19.7708C41.0793 19.7708 50.0492 29.1804 50.0568 29.1882C50.7221 29.8529 50.7221 30.935 50.0568 31.6003ZM52.3946 27.7193C52.275 27.5613 42.4283 17.2227 42.4283 17.2227C42.0353 16.8105 41.4464 16.6978 40.9462 16.8907L32.8025 20.0358C31.8691 20.3963 30.7974 20.0482 30.2538 19.2084C29.6443 18.2665 29.8747 17.008 30.7783 16.3433L36.3971 12.2092C37.4441 11.4391 38.7688 11.1734 40.0315 11.4806L52.2632 14.4564C52.2806 14.4607 52.2978 14.4629 52.3152 14.4663L55.1471 26.3677L52.3946 27.7193ZM67.2656 24.9451L58.2954 27.7863L54.1633 10.4219L67.2656 3.61766V24.9451Z" fill="#02ADEA"/>
</svg>
