<svg width="126" height="125" viewBox="0 0 126 125" fill="none" xmlns="http://www.w3.org/2000/svg">
<path fill-rule="evenodd" clip-rule="evenodd" d="M39.3737 61.7113C39.2592 62.6851 38.431 63.4405 37.4264 63.4405H29.1136C28.0308 63.4405 27.1528 62.5625 27.1528 61.4797V38.3662C27.1528 37.2833 28.0308 36.4054 29.1136 36.4054H37.4264C38.3065 36.4054 39.0514 36.9853 39.2992 37.7838C39.5901 37.427 39.8825 37.0527 40.1673 36.6667C41.284 35.1532 42.3337 33.4655 42.5264 31.9434C42.7492 30.1799 42.78 29.0017 42.7342 28.2314C42.5555 27.3586 42.7896 26.4451 43.3793 25.763C44.0293 25.011 45.02 24.6461 45.9996 24.7958C48.0572 25.0914 51.1847 26.3128 51.7617 30.6873C52.1153 33.3689 51.9462 35.762 51.7001 37.448H57.067C60.5058 37.448 63.3273 40.1708 63.4496 43.6074L63.4499 43.6105C63.5518 46.6069 63.2884 50.5473 62.3489 53.9471L62.3487 53.9478C61.0795 58.5348 56.905 61.711 52.1455 61.711C48.1514 61.7113 42.3619 61.7113 39.3737 61.7113ZM39.3871 43.5061V57.7897C42.3793 57.7897 48.1572 57.7897 52.1455 57.7895C55.1418 57.7895 57.77 55.79 58.5693 52.9022C59.4011 49.8912 59.6207 46.4003 59.5305 43.7461C59.4827 42.4201 58.394 41.3696 57.067 41.3696H49.2987C48.6771 41.3696 48.0925 41.0753 47.7227 40.5757C47.3531 40.0762 47.2418 39.4311 47.4232 38.8368C47.4232 38.8368 48.4354 35.4603 47.8737 31.2C47.732 30.126 47.2347 29.4932 46.6715 29.126C46.6604 29.9706 46.5916 31.0542 46.4168 32.4353C46.1526 34.5262 44.8568 36.9157 43.3229 38.9949C41.8754 40.9569 40.2555 42.6449 39.3871 43.5061ZM35.4656 40.327H31.0744V59.5189H35.4656V40.327ZM90.8651 100.752C86.6781 103.848 81.4982 105.679 75.8903 105.679C61.9663 105.679 50.6808 94.3934 50.6808 80.4694C50.6808 66.5451 61.9663 55.2596 75.8903 55.2596C89.8146 55.2596 101.1 66.5451 101.1 80.4694C101.1 85.2456 99.7719 89.7115 97.4651 93.5179L102.418 98.3272C103.88 97.714 105.641 97.9838 106.844 99.1488L106.846 99.1503L119.613 111.54C121.219 113.095 121.265 115.683 119.697 117.302L119.695 117.303L115.088 122.049L115.087 122.051C113.533 123.654 110.949 123.699 109.332 122.146C109.33 122.143 109.328 122.141 109.325 122.138L96.5653 109.749C95.354 108.581 95.029 106.828 95.6006 105.348L90.8651 100.752ZM95.1506 96.7368C94.7317 97.2321 94.294 97.7113 93.8386 98.173L98.1021 102.311L99.4553 100.916L95.1506 96.7368ZM75.8903 59.1811C64.1325 59.1811 54.6023 68.7113 54.6023 80.4694C54.6023 92.2272 64.1325 101.757 75.8903 101.757C87.6484 101.757 97.1786 92.2272 97.1786 80.4694C97.1786 68.7113 87.6484 59.1811 75.8903 59.1811ZM75.8903 60.6819C86.819 60.6819 95.6781 69.5407 95.6781 80.4694C95.6781 91.3978 86.819 100.257 75.8903 100.257C64.9619 100.257 56.1028 91.3978 56.1028 80.4694C56.1028 69.5407 64.9619 60.6819 75.8903 60.6819ZM75.8903 64.6034C67.1276 64.6034 60.0244 71.7066 60.0244 80.4694C60.0244 89.2321 67.1276 96.3353 75.8903 96.3353C84.6533 96.3353 91.7565 89.2321 91.7565 80.4694C91.7565 71.7066 84.6533 64.6034 75.8903 64.6034ZM75.8903 72.273C81.4354 72.273 86.3357 75.0015 89.3376 79.1858C89.344 79.1946 89.3504 79.2037 89.3565 79.2125C89.9173 80.0223 89.8788 81.0169 89.3303 81.763C86.3278 85.9414 81.431 88.6657 75.8903 88.6657C70.3474 88.6657 65.4489 85.939 62.4536 81.7672C61.9021 81.0159 61.8641 80.0218 62.4242 79.2125C62.4305 79.2037 62.4369 79.1946 62.4433 79.1858C65.4452 75.0015 70.3455 72.273 75.8903 72.273ZM66.4266 80.4674C68.7389 83.0882 72.1188 84.7441 75.8903 84.7441C79.6612 84.7441 83.0403 83.089 85.3526 80.4694C83.0403 77.8495 79.6612 76.1946 75.8903 76.1946C72.1114 76.1946 68.7256 77.8569 66.4266 80.4674ZM75.8903 82.8174C74.6016 82.8174 73.5457 81.7615 73.5457 80.4728C73.5457 79.177 74.6016 78.128 75.8903 78.128C77.1793 78.128 78.2352 79.177 78.2352 80.4728C78.2352 81.7615 77.1793 82.8174 75.8903 82.8174ZM112.273 119.319L116.88 114.573C116.939 114.513 116.945 114.416 116.885 114.358L116.883 114.356L104.116 101.966C104.056 101.908 103.959 101.907 103.9 101.968L103.899 101.969L99.2898 106.717C99.2886 106.718 99.2874 106.72 99.2859 106.721C99.2303 106.778 99.23 106.871 99.2876 106.926C99.2901 106.928 99.2925 106.931 99.2952 106.933C99.2952 106.933 112.05 119.319 112.056 119.323C112.118 119.378 112.213 119.381 112.271 119.321L112.273 119.319ZM48.0563 88.3346C49.1033 88.0605 50.1756 88.688 50.4496 89.7351C50.7239 90.7819 50.0962 91.8544 49.0494 92.1284C47.8621 92.4392 46.6545 92.7025 45.4283 92.9159L44.0974 93.1525C43.8707 93.1927 43.6384 93.1927 43.4117 93.1525L42.0808 92.9159C20.8501 89.2164 5.15283 70.5814 5.15283 49.0105V19.3873C5.15283 18.603 5.61999 17.8941 6.34082 17.5851L42.9818 1.87428C43.4751 1.66276 44.0337 1.66276 44.5271 1.87428L81.1768 17.5851C81.8977 17.8941 82.3651 18.603 82.3651 19.3873V49.0105C82.3651 50.026 82.3303 51.0348 82.2619 52.0358C82.1881 53.1155 81.2516 53.9321 80.1719 53.8581C79.0923 53.7843 78.2756 52.8478 78.3494 51.7682C78.4119 50.8556 78.4435 49.936 78.4435 49.0105V20.6802L43.7545 5.80982L9.0744 20.6799V49.0105C9.0744 68.6848 23.393 85.6809 42.7577 89.0534C42.7597 89.0537 42.7619 89.0542 42.7641 89.0544L43.7545 89.2304L44.745 89.0544C44.7472 89.0542 44.7494 89.0537 44.7516 89.0532C45.8707 88.8586 46.9729 88.6181 48.0563 88.3346ZM71.709 51.9669C71.6141 53.0451 70.6619 53.8431 69.5837 53.7483C68.5058 53.6534 67.7075 52.7012 67.8023 51.6233C67.8783 50.7608 67.917 49.8892 67.917 49.0105V27.6103L43.7548 17.2574L19.6009 27.6101V49.0105C19.6009 63.299 29.8322 75.7088 43.7548 78.5392C44.8621 78.3142 45.9462 78.0287 47.0036 77.6863C48.0332 77.353 49.1396 77.9184 49.4729 78.9478C49.8063 79.9775 49.2408 81.0838 48.2114 81.4172C46.8835 81.8471 45.5183 82.1981 44.121 82.4637C43.8788 82.5098 43.63 82.5098 43.3879 82.4637C27.4435 79.4294 15.6793 65.2993 15.6793 49.0105V26.3172C15.6793 25.5329 16.1467 24.824 16.8675 24.515L42.982 13.3218C43.4754 13.1106 44.0335 13.1103 44.5269 13.3218L70.6501 24.515C71.3712 24.8238 71.8386 25.5329 71.8386 26.3172V49.0105C71.8386 50.0047 71.7947 50.9909 71.709 51.9669Z" fill="#02ADEA"/>
</svg>
