<svg width="126" height="125" viewBox="0 0 126 125" fill="none" xmlns="http://www.w3.org/2000/svg">
<g clip-path="url(#clip0_1602_2044)">
<path d="M23.9849 23.4849C34.4062 13.0635 48.262 7.32422 63 7.32422C74.2705 7.32422 85.167 10.7527 94.3308 17.0818L87.2563 17.8074L88.0037 25.0933L107.047 23.1401L105.094 4.09717L97.8074 4.84448L98.4407 11.019C88.0701 3.87134 75.7461 0 63 0C46.3057 0 30.6106 6.50122 18.8059 18.3059C7.00122 30.1106 0.5 45.8057 0.5 62.5C0.5 74.998 4.17773 87.0618 11.1355 97.3865L17.2092 93.2935C17.125 93.1682 17.0432 93.042 16.96 92.9163C10.9829 83.8889 7.82422 73.3828 7.82422 62.5C7.82422 47.7622 13.5635 33.9062 23.9849 23.4849Z" fill="#02ADEA"/>
<path d="M114.865 27.6135L108.791 31.7065C108.875 31.8315 108.957 31.9582 109.04 32.0837C115.017 41.1111 118.176 51.6172 118.176 62.5C118.176 77.238 112.437 91.0937 102.015 101.515C91.594 111.937 77.7383 117.676 63 117.676C51.7295 117.676 40.833 114.247 31.6692 107.918L38.7437 107.193L37.9963 99.9067L18.9534 101.86L20.9065 120.903L28.1926 120.156L27.5593 113.981C37.9302 121.129 50.2542 125 63 125C79.6943 125 95.3894 118.499 107.194 106.694C118.999 94.8894 125.5 79.1943 125.5 62.5C125.5 50.0019 121.823 37.9382 114.865 27.6135Z" fill="#02ADEA"/>
<path d="M31.0134 70.1865L35.7546 65.8044C39.3464 62.5 40.0291 60.2729 40.0291 57.8306C40.0291 53.1611 36.042 50.1799 30.2593 50.1799C25.3025 50.1799 21.7466 52.2632 19.843 55.4241L25.123 58.3694C26.1287 56.7532 27.781 55.927 29.6128 55.927C31.7678 55.927 32.8455 56.8967 32.8455 58.5132C32.8455 59.5549 32.5581 60.7043 30.5466 62.572L21.136 71.3721V75.8259H40.7114V70.1868L31.0134 70.1865Z" fill="#02ADEA"/>
<path d="M63.3057 71.0127H67.041V65.3735H63.3057V61.0994H56.5889V65.3735H51.4885L61.7251 50.6829H54.3618L43.0835 66.3792V71.0127H56.3733V75.8257H63.3057V71.0127Z" fill="#02ADEA"/>
<path d="M73.5073 79.4175L85.3601 45.5825H79.29L67.437 79.4175H73.5073Z" fill="#02ADEA"/>
<path d="M91.3948 60.2012V56.322H98.0037L89.5271 75.8257H97.2854L106.157 55.1367V50.6829H85.3245V60.2012H91.3948Z" fill="#02ADEA"/>
</g>
<defs>
<clipPath id="clip0_1602_2044">
<rect width="125" height="125" fill="white" transform="translate(0.5)"/>
</clipPath>
</defs>
</svg>
