<svg width="126" height="125" viewBox="0 0 126 125" fill="none" xmlns="http://www.w3.org/2000/svg">
<path d="M84.3622 54.0039C72.5702 42.2119 53.454 42.2119 41.662 54.0039C29.87 65.7959 29.87 84.9121 41.662 96.7041C53.454 108.496 72.5702 108.496 84.3622 96.7041C96.1298 84.9121 96.1298 65.7959 84.3622 54.0039ZM49.7431 106.567C45.0556 104.565 40.8808 101.538 37.5604 97.7539L29.9188 110.986L37.6825 109.766C38.3417 109.644 39.0253 109.863 39.4647 110.425L44.2011 116.235L49.7431 106.567ZM88.4638 97.7539C85.119 101.538 80.9687 104.565 76.2567 106.567L81.8232 116.211L86.5595 110.4C86.9989 109.863 87.6825 109.619 88.3417 109.741L96.1054 110.962L88.4638 97.7539ZM75.036 63.3301C68.3954 56.6895 57.6288 56.6895 50.9882 63.3301C44.3476 69.9707 44.3476 80.7373 50.9882 87.378C57.6288 94.0186 68.3954 94.0186 75.036 87.378C81.6767 80.7373 81.6767 69.9707 75.036 63.3301ZM62.9999 54.6143C74.4501 54.6143 83.7519 63.8916 83.7519 75.3662C83.7519 86.8164 74.4745 96.1182 62.9999 96.1182C51.5497 96.1182 42.2479 86.8409 42.2479 75.3662C42.2724 63.8916 51.5497 54.6143 62.9999 54.6143ZM53.3319 76.7334C52.8192 75.8301 53.1122 74.7071 54.0155 74.1944C54.9188 73.6817 56.0419 73.9746 56.5546 74.878L59.5331 80.0293L69.7382 69.8242C70.4706 69.0918 71.6669 69.0918 72.3749 69.8242C73.1073 70.5567 73.1073 71.7285 72.3749 72.461L60.4608 84.375C59.6063 85.2295 58.1415 85.0586 57.5312 83.9844L53.3319 76.7334ZM106.091 27.4414L109.777 35.083L118.176 36.2305C119.616 36.4258 120.129 38.1836 119.128 39.1602L113 45.0196L114.514 53.3692C114.758 54.7852 113.268 55.835 112.023 55.1758L104.553 51.1719L97.0819 55.1758C95.8612 55.835 94.2743 54.8096 94.6161 53.2715L96.1054 45.0196L89.9774 39.1602C88.952 38.1836 89.5136 36.4258 90.954 36.2305L99.328 35.083L103.015 27.4414C103.625 26.1475 105.456 26.1719 106.091 27.4414ZM22.9853 27.4414L26.6718 35.083L35.0702 36.2305C36.4862 36.4258 37.0233 38.1836 36.0224 39.1602L29.8944 45.0196L31.4081 53.3692C31.6522 54.7852 30.163 55.835 28.9423 55.1758L21.4716 51.1719L14.0009 55.1758C12.7802 55.835 11.2177 54.8096 11.5351 53.2715L13.0243 45.0196L6.89638 39.1602C5.87099 38.1836 6.43252 36.4258 7.87295 36.2305L16.247 35.083L19.9335 27.4414C20.5438 26.1475 22.3749 26.1719 22.9853 27.4414ZM64.538 9.74124L68.2245 17.3828L76.6229 18.5303C78.039 18.7256 78.5761 20.4834 77.5751 21.46L71.4472 27.3194L72.9608 35.669C73.205 37.085 71.7157 38.1348 70.4706 37.4756L62.9999 33.4473L55.5292 37.4512C54.3085 38.1104 52.746 37.085 53.0634 35.5469L54.5526 27.295L48.4247 21.4356C47.3993 20.459 47.9608 18.7012 49.4013 18.5059L57.7753 17.3584L61.4618 9.71682C62.0966 8.44729 63.9276 8.47171 64.538 9.74124Z" fill="#02ADEA"/>
</svg>
