<svg width="126" height="125" viewBox="0 0 126 125" fill="none" xmlns="http://www.w3.org/2000/svg">
<path d="M106.182 83.5227C103.152 82.3864 99.7425 82.7652 96.7122 84.6591L78.5303 95.644C77.7728 95.0758 77.0152 94.5076 76.2576 94.3182L48.7955 84.4697C46.7122 83.7121 44.4394 83.7121 42.5455 84.6591C42.5455 84.6591 42.3561 84.6591 42.3561 84.8485L31.3713 91.4773V90.9091C31.3713 88.8258 29.6667 87.1212 27.5834 87.1212H18.4925C16.4091 87.1212 14.7046 88.8258 14.7046 90.9091V119.318C14.7046 121.402 16.4091 123.106 18.4925 123.106H27.394C29.4773 123.106 31.1819 121.402 31.1819 119.318V118.371C35.3485 116.099 37.0531 114.015 39.894 114.394L70.197 121.023C72.6591 121.78 75.3106 121.212 77.5834 119.697L108.455 95.2652C112.621 92.4243 112.242 85.7955 106.182 83.5227ZM18.4925 119.318V90.9091H27.394V119.318H18.4925ZM106.182 92.2349C74.7425 116.099 75.5 118.561 71.144 117.235L40.6516 110.606H40.4622C36.1061 109.849 33.0758 112.879 31.1819 113.826V95.644L44.0606 87.8788C45.197 87.5 46.3334 87.5 47.4697 87.8788L74.9319 97.7273C77.394 98.6743 78.341 101.705 76.8258 103.788C75.6894 105.303 73.7955 105.871 71.9016 105.114L55.6137 98.8637C54.6667 98.4849 53.5303 99.0531 53.1516 100C52.7728 100.947 53.341 102.083 54.2879 102.462L70.5758 108.712C73.9849 110.227 77.7728 109.091 79.8561 106.25C81.3713 104.167 81.9394 101.705 80.8031 98.8637L98.7955 88.0682C100.689 86.9318 102.962 86.5531 105.046 87.3106C107.886 88.2576 108.076 90.9091 106.182 92.2349Z" fill="#02ADEA"/>
<path d="M59.7803 64.5833C61.4849 65.7197 62.6212 67.6136 63 69.5075C61.2955 70.4545 60.3485 72.3485 60.3485 74.2424C60.3485 76.8939 62.2424 79.1666 64.894 79.7348L65.6515 85.7954C65.8409 86.7424 66.5985 87.5 67.5455 87.5H82.3182C83.2652 87.5 84.0227 86.7424 84.2121 85.7954L84.9697 79.5454C87.2424 78.7878 89.1364 76.7045 89.1364 74.2424C89.1364 72.1591 88 70.4545 86.4849 69.5075C86.6743 67.6136 87.8106 65.7197 89.7046 64.3939C96.7121 59.4697 101.068 51.5151 101.068 42.9924C101.068 28.2197 88.7576 16.2878 73.7955 17.0454C60.3485 17.6136 49.1743 29.1666 48.9849 42.6136C48.4167 51.5151 52.5833 59.6591 59.7803 64.5833ZM69.0606 83.9015L68.6818 80.1136H80.9924L80.6136 83.9015H69.0606ZM83.0758 76.3257H65.8409C64.894 76.3257 63.947 75.5681 63.947 74.4318C63.947 73.4848 64.7046 72.5378 65.8409 72.5378H83.0758C84.0227 72.5378 84.9697 73.2954 84.9697 74.4318C84.9697 75.3788 84.2121 76.3257 83.0758 76.3257ZM73.4167 21.0227C86.1061 20.4545 96.7121 30.6818 96.7121 43.1818C96.7121 50.5681 93.1137 57.3863 87.053 61.553C84.4015 63.2575 82.697 65.9091 82.3182 68.9394H66.7879C66.4091 66.0985 64.7046 63.4469 62.053 61.553C55.9924 57.3863 52.3939 50.3788 52.3939 42.9924C52.5833 31.4394 62.053 21.5909 73.4167 21.0227Z" fill="#02ADEA"/>
<path d="M73.9849 30.4924C81.1819 30.1136 87.2425 35.9848 87.2425 43.1818C87.2425 44.3182 88.0001 45.0757 89.1365 45.0757C90.2728 45.0757 91.0304 44.3182 91.0304 43.1818C91.0304 33.9015 83.2652 26.3257 73.7956 26.7045C72.6592 26.7045 71.9016 27.6515 71.9016 28.5985C71.9016 29.7348 72.8486 30.4924 73.9849 30.4924Z" fill="#02ADEA"/>
<path d="M74.5531 13.0682C75.6895 13.0682 76.4471 12.3106 76.4471 11.1742V3.78786C76.4471 2.6515 75.6895 1.89392 74.5531 1.89392C73.4168 1.89392 72.6592 2.6515 72.6592 3.78786V11.1742C72.6592 12.3106 73.4168 13.0682 74.5531 13.0682Z" fill="#02ADEA"/>
<path d="M61.1062 14.0151C61.485 14.7727 62.0531 15.1515 62.8107 15.1515C63.0001 15.1515 63.3789 15.1515 63.5683 14.9621C64.5153 14.5833 65.0834 13.4469 64.5153 12.5L61.6744 5.68178C61.2956 4.73481 60.1592 4.16663 59.2122 4.73481C58.2653 5.1136 57.6971 6.24996 58.2653 7.19693L61.1062 14.0151Z" fill="#02ADEA"/>
<path d="M51.6363 21.2121C52.3939 21.9697 53.5303 21.9697 54.2879 21.2121C55.0454 20.4545 55.0454 19.3182 54.2879 18.5606L48.9848 13.2576C48.2273 12.5 47.0909 12.5 46.3333 13.2576C45.5757 14.0151 45.5757 15.1515 46.3333 15.9091L51.6363 21.2121Z" fill="#02ADEA"/>
<path d="M97.2802 21.7803L102.583 16.4773C103.341 15.7197 103.341 14.5833 102.583 13.8258C101.826 13.0682 100.689 13.0682 99.9318 13.8258L94.6287 18.9394C93.8712 19.697 93.8712 20.8333 94.6287 21.5909C95.1969 22.3485 96.5227 22.3485 97.2802 21.7803Z" fill="#02ADEA"/>
<path d="M85.3485 15.3409C85.5379 15.5303 85.9167 15.5303 86.106 15.5303C86.8636 15.5303 87.6212 15.1515 87.8106 14.3939L90.6515 7.57572C91.0303 6.62875 90.6515 5.49239 89.7045 5.1136C88.7576 4.73481 87.6212 5.1136 87.2424 6.06057L84.4015 12.8787C84.0227 13.8257 84.4015 14.9621 85.3485 15.3409Z" fill="#02ADEA"/>
</svg>
