<svg width="24" height="25" viewBox="0 0 24 25" fill="none" xmlns="http://www.w3.org/2000/svg">
<path d="M12 15.0635C13.3591 15.0635 14.4609 13.9158 14.4609 12.5C14.4609 11.0842 13.3591 9.93652 12 9.93652C10.6409 9.93652 9.53906 11.0842 9.53906 12.5C9.53906 13.9158 10.6409 15.0635 12 15.0635Z" fill="white"/>
<path d="M12 0.292969C5.52792 0.292969 0.28125 5.75825 0.28125 12.5C0.28125 19.2417 5.52792 24.707 12 24.707C18.4721 24.707 23.7188 19.2417 23.7188 12.5C23.7188 5.75825 18.4721 0.292969 12 0.292969ZM19.2402 15.6025C19.184 16.7631 18.8709 17.9075 18.059 18.7443C17.2392 19.589 16.1353 19.9038 15.0105 19.9618H8.98959C7.86459 19.9038 6.76087 19.5892 5.94108 18.7443C5.12911 17.9075 4.81608 16.7631 4.75983 15.6025V9.39746C4.81608 8.23691 5.12916 7.09248 5.94108 6.25566C6.76087 5.41094 7.86473 5.09619 8.98959 5.03823H15.0104C16.1354 5.09619 17.2391 5.41079 18.0589 6.25566C18.8709 7.09248 19.1839 8.23691 19.2402 9.39746L19.2402 15.6025Z" fill="white"/>
<path d="M14.9344 6.45183C13.4678 6.40994 10.5325 6.40994 9.066 6.45183C8.30282 6.47366 7.43765 6.67156 6.8939 7.27654C6.32887 7.9054 6.11536 8.66516 6.0937 9.51511C6.05564 11.0069 6.0937 15.4844 6.0937 15.4844C6.1185 16.3343 6.32887 17.0942 6.8939 17.723C7.43765 18.3282 8.30282 18.5259 9.066 18.5477C10.5325 18.5896 13.4678 18.5896 14.9344 18.5477C15.6975 18.5259 16.5627 18.328 17.1065 17.723C17.6715 17.0942 17.885 16.3344 17.9067 15.4844V9.51511C17.885 8.66516 17.6715 7.9054 17.1065 7.27654C16.5625 6.67136 15.6974 6.47366 14.9344 6.45183ZM12 16.4732C11.2456 16.4732 10.5081 16.2401 9.8808 15.8035C9.25352 15.3669 8.76461 14.7464 8.4759 14.0203C8.18719 13.2943 8.11166 12.4954 8.25884 11.7246C8.40602 10.9538 8.76931 10.2459 9.30277 9.69017C9.83623 9.13448 10.5159 8.75605 11.2558 8.60274C11.9958 8.44943 12.7627 8.52811 13.4597 8.82885C14.1567 9.12958 14.7525 9.63886 15.1716 10.2923C15.5907 10.9457 15.8145 11.7139 15.8145 12.4998C15.8145 13.5536 15.4126 14.5642 14.6972 15.3094C13.9819 16.0545 13.0117 16.4732 12 16.4732ZM15.8307 9.34656C15.6798 9.34652 15.5323 9.29988 15.4069 9.21254C15.2814 9.12519 15.1837 9.00107 15.126 8.85585C15.0683 8.71064 15.0532 8.55087 15.0826 8.39673C15.1121 8.24259 15.1848 8.10101 15.2915 7.98989C15.3982 7.87877 15.5341 7.8031 15.6821 7.77246C15.8301 7.74181 15.9835 7.75756 16.1228 7.81771C16.2622 7.87786 16.3814 7.97972 16.4652 8.1104C16.549 8.24108 16.5937 8.39472 16.5937 8.55188C16.5937 8.65626 16.574 8.75961 16.5357 8.85604C16.4973 8.95246 16.4411 9.04008 16.3702 9.11387C16.2994 9.18767 16.2153 9.2462 16.1227 9.28612C16.0301 9.32605 15.9309 9.34658 15.8307 9.34656Z" fill="white"/>
</svg>
