<svg width="24" height="25" viewBox="0 0 24 25" fill="none" xmlns="http://www.w3.org/2000/svg">
<path d="M15.3158 9.046L15.2921 9.02133C14.5072 8.20813 13.4701 7.71257 12.3664 7.62342C11.2627 7.53427 10.1646 7.85736 9.26878 8.5348C8.37295 9.21225 7.73794 10.1998 7.47749 11.3206C7.21703 12.4413 7.34815 13.622 7.84736 14.6513L8.05262 15.0723L7.66894 17.0098V17.0345L9.51157 16.5789L9.93157 16.796C10.8057 17.248 11.794 17.4028 12.7571 17.2388C13.7202 17.0747 14.6096 16.6 15.3 15.8815C16.1668 14.9742 16.6547 13.7472 16.6577 12.4671C16.6606 11.1871 16.1784 9.95763 15.3158 9.046ZM15.1295 14.4736C14.9037 14.8437 14.5453 15.296 14.0984 15.4095C13.3089 15.6085 12.1074 15.4095 10.6026 13.9605L10.5837 13.9424C9.27473 12.6694 8.92736 11.6085 9.00473 10.768C9.05051 10.2911 9.43262 9.86015 9.75473 9.57725C9.80581 9.53193 9.86641 9.49976 9.93163 9.48333C9.99685 9.46691 10.0649 9.46669 10.1302 9.4827C10.1955 9.49871 10.2563 9.53049 10.3076 9.57549C10.359 9.62049 10.3995 9.67743 10.4258 9.74173L10.9105 10.893C10.9422 10.9665 10.954 11.0476 10.9449 11.1275C10.9357 11.2075 10.9058 11.2834 10.8584 11.347L10.6121 11.6759C10.5609 11.7442 10.5304 11.8268 10.5245 11.9133C10.5186 11.9997 10.5375 12.086 10.5789 12.1611C10.813 12.5198 11.093 12.8435 11.411 13.1233C11.7525 13.4675 12.1409 13.7574 12.5637 13.9835C12.6407 14.0161 12.7253 14.0239 12.8066 14.006C12.8879 13.9882 12.9622 13.9454 13.02 13.8832L13.3026 13.5855C13.3554 13.5225 13.424 13.4762 13.5008 13.4517C13.5775 13.4273 13.6593 13.4258 13.7368 13.4473L14.8895 13.7927C14.9535 13.8122 15.0124 13.847 15.0614 13.8943C15.1103 13.9416 15.1481 14 15.1717 14.0651C15.1952 14.1302 15.204 14.2 15.1972 14.2692C15.1904 14.3384 15.1683 14.405 15.1326 14.4638L15.1295 14.4736Z" fill="white"/>
<path d="M12 0C9.62663 0 7.30655 0.733112 5.33316 2.10663C3.35977 3.48015 1.8217 5.43238 0.913451 7.71646C0.00519938 10.0005 -0.232441 12.5139 0.230582 14.9386C0.693605 17.3634 1.83649 19.5907 3.51472 21.3388C5.19295 23.087 7.33115 24.2775 9.65892 24.7598C11.9867 25.2421 14.3995 24.9946 16.5922 24.0485C18.7849 23.1024 20.6591 21.5002 21.9776 19.4446C23.2962 17.389 24 14.9723 24 12.5C24 9.18479 22.7357 6.00537 20.4853 3.66117C18.2348 1.31696 15.1826 0 12 0ZM17.9479 12.6464C17.9155 13.6845 17.6333 14.6975 17.1272 15.5925C16.6212 16.4875 15.9075 17.2357 15.0516 17.7686C14.1956 18.3015 13.225 18.6019 12.2286 18.6424C11.2322 18.6828 10.2421 18.4619 9.34895 18L6.34895 18.7434C6.3036 18.7543 6.25616 18.7506 6.2128 18.733C6.16944 18.7155 6.13216 18.6847 6.10579 18.6447C6.08777 18.618 6.07525 18.5877 6.069 18.5558C6.06275 18.5238 6.06291 18.4908 6.06948 18.4589L6.70106 15.2648C6.28822 14.4222 6.06595 13.4923 6.05126 12.5464C6.03657 11.6005 6.22986 10.6636 6.61632 9.80754C7.00278 8.95144 7.57217 8.19881 8.2809 7.60725C8.98963 7.0157 9.81891 6.60091 10.7052 6.39465C11.5916 6.18838 12.5115 6.19611 13.3945 6.41724C14.2775 6.63836 15.1003 7.06703 15.7998 7.67041C16.4992 8.2738 17.0569 9.0359 17.4301 9.89838C17.8032 10.7609 17.982 11.7008 17.9526 12.6464H17.9479Z" fill="white"/>
</svg>
