<svg width="100" height="100" viewBox="0 0 100 100" fill="none" xmlns="http://www.w3.org/2000/svg">
<circle cx="50" cy="50" r="50" fill="#02ADEA"/>
<circle cx="50" cy="50" r="50" fill="#02ADEA"/>
<path d="M58.3473 58.0356C63.6679 49.6867 62.999 50.7283 63.1523 50.5106C65.0895 47.7784 66.1133 44.5627 66.1133 41.2109C66.1133 32.3223 58.9003 25 50 25C41.1287 25 33.8867 32.3078 33.8867 41.2109C33.8867 44.5605 34.932 47.8605 36.9326 50.6295L41.6525 58.0357C36.6062 58.8112 28.0273 61.1223 28.0273 66.2109C28.0273 68.0659 29.2381 70.7095 35.0061 72.7694C39.0336 74.2078 44.3585 75 50 75C60.5493 75 71.9727 72.0242 71.9727 66.2109C71.9727 61.1214 63.4039 58.8128 58.3473 58.0356ZM39.3798 49.0181C39.3637 48.9929 39.3469 48.9683 39.3293 48.944C37.6645 46.6538 36.8164 43.9396 36.8164 41.2109C36.8164 33.885 42.7154 27.9297 50 27.9297C57.2694 27.9297 63.1836 33.8876 63.1836 41.2109C63.1836 43.9439 62.3515 46.5661 60.7768 48.796C60.6356 48.9821 61.3719 47.8384 50 65.6825L39.3798 49.0181ZM50 72.0703C38.4771 72.0703 30.957 68.6833 30.957 66.2109C30.957 64.5492 34.8211 61.8169 43.3836 60.7519L48.7646 69.1955C49.0336 69.6176 49.4994 69.873 49.9999 69.873C50.5004 69.873 50.9663 69.6175 51.2352 69.1955L56.6161 60.7519C65.1788 61.8169 69.043 64.5492 69.043 66.2109C69.043 68.6623 61.5905 72.0703 50 72.0703Z" fill="white"/>
<path d="M50 33.8867C45.9614 33.8867 42.6758 37.1724 42.6758 41.2109C42.6758 45.2495 45.9614 48.5352 50 48.5352C54.0386 48.5352 57.3242 45.2495 57.3242 41.2109C57.3242 37.1724 54.0386 33.8867 50 33.8867ZM50 45.6055C47.5769 45.6055 45.6055 43.6341 45.6055 41.2109C45.6055 38.7878 47.5769 36.8164 50 36.8164C52.4231 36.8164 54.3945 38.7878 54.3945 41.2109C54.3945 43.6341 52.4231 45.6055 50 45.6055Z" fill="white"/>
</svg>
