<svg width="28" height="29" viewBox="0 0 28 29" fill="none" xmlns="http://www.w3.org/2000/svg">
<path d="M21.5856 11.665C21.5857 10.6095 21.4308 9.55969 21.1258 8.54921C20.6929 7.11183 19.9629 5.78137 18.9833 4.64389C18.0037 3.50641 16.7962 2.58726 15.4389 1.9459C14.0817 1.30454 12.6049 0.955265 11.1041 0.920665C9.60334 0.886066 8.11202 1.16691 6.72663 1.74504C5.34125 2.32317 4.09267 3.1857 3.06167 4.27682C2.03067 5.36794 1.24022 6.66336 0.741458 8.07925C0.242695 9.49514 0.0467314 11 0.166246 12.4964C0.285761 13.9928 0.718092 15.4474 1.43527 16.7662L0.171617 21.2016C0.132077 21.3404 0.125284 21.4864 0.151772 21.6283C0.178261 21.7701 0.23731 21.9039 0.32427 22.0191C0.411231 22.1342 0.523731 22.2277 0.652918 22.292C0.782106 22.3563 0.924454 22.3897 1.06876 22.3897C1.15515 22.3895 1.24111 22.3776 1.32429 22.3542L5.76059 21.0897C6.39002 21.4346 7.05393 21.7125 7.7414 21.9187C8.75171 22.2314 9.80332 22.3901 10.8609 22.3897C13.7043 22.3865 16.4303 21.2555 18.4409 19.2449C20.4514 17.2344 21.5824 14.5084 21.5856 11.665Z" fill="black"/>
<path d="M27.6915 27.5538L26.4279 23.1184C27.7185 20.743 28.0628 17.9673 27.3916 15.3485C26.7205 12.7297 25.0835 10.4618 22.8094 9C23.1831 10.8277 23.145 12.7156 22.6979 14.5268C22.2509 16.3379 21.4061 18.0267 20.2249 19.4706C19.0437 20.9145 17.5558 22.0772 15.8692 22.8744C14.1826 23.6715 12.3396 24.083 10.4741 24.0789C9.64293 24.0764 8.81407 23.9905 8 23.8225C8.97507 25.3245 10.3083 26.5605 11.8798 27.4192C13.4512 28.278 15.2115 28.7325 17.0022 28.7419C18.7845 28.7421 20.5384 28.2955 22.1035 27.4428L26.5388 28.7064C26.622 28.7298 26.708 28.7417 26.7944 28.7419C26.9387 28.7419 27.081 28.7085 27.2102 28.6441C27.3394 28.5798 27.4519 28.4864 27.5389 28.3713C27.6258 28.2561 27.6849 28.1223 27.7113 27.9805C27.7378 27.8386 27.731 27.6925 27.6915 27.5538Z" fill="#02ADEA"/>
</svg>
