<svg width="101" height="101" viewBox="0 0 101 101" fill="none" xmlns="http://www.w3.org/2000/svg">
<circle cx="50.5" cy="50.5" r="50" fill="#02ADEA"/>
<g clip-path="url(#clip0_1809_57)">
<path d="M65.0155 56.4732C63.9919 55.4074 62.7572 54.8375 61.4487 54.8375C60.1507 54.8375 58.9054 55.3968 57.8396 56.4627L54.5049 59.7868C54.2305 59.6391 53.9562 59.5019 53.6923 59.3647C53.3124 59.1748 52.9536 58.9954 52.6476 58.8054C49.524 56.8215 46.6852 54.236 43.9626 50.8908C42.6435 49.2234 41.7571 47.8199 41.1133 46.3953C41.9787 45.6038 42.7807 44.7807 43.5616 43.9892C43.8571 43.6937 44.1526 43.3877 44.448 43.0922C46.6641 40.8761 46.6641 38.0058 44.448 35.7897L41.5671 32.9087C41.24 32.5816 40.9023 32.2439 40.5857 31.9062C39.9525 31.2519 39.2877 30.5766 38.6018 29.9434C37.5781 28.9303 36.354 28.3921 35.0666 28.3921C33.7791 28.3921 32.5339 28.9303 31.4786 29.9434C31.468 29.9539 31.468 29.9539 31.4575 29.9645L27.8695 33.5841C26.5188 34.9349 25.7484 36.5811 25.5796 38.4912C25.3263 41.5726 26.2338 44.443 26.9303 46.3214C28.6399 50.933 31.1937 55.2069 35.0032 59.7868C39.6254 65.306 45.1867 69.6643 51.5395 72.7352C53.9667 73.8854 57.2064 75.2467 60.826 75.4789C61.0477 75.4895 61.2798 75.5 61.4909 75.5C63.9286 75.5 65.9758 74.6241 67.5799 72.8829C67.5904 72.8618 67.6115 72.8512 67.6221 72.8301C68.1708 72.1653 68.804 71.5638 69.4688 70.9201C69.9226 70.4874 70.3869 70.0336 70.8407 69.5588C71.8854 68.4718 72.4342 67.2055 72.4342 65.9075C72.4342 64.5989 71.8749 63.3431 70.809 62.2878L65.0155 56.4732ZM68.7934 67.5854C68.7829 67.5854 68.7829 67.5959 68.7934 67.5854C68.3819 68.0286 67.9598 68.4296 67.506 68.8728C66.8201 69.5271 66.1236 70.213 65.4693 70.9834C64.4035 72.1231 63.1477 72.6613 61.5014 72.6613C61.3431 72.6613 61.1743 72.6613 61.016 72.6507C57.8818 72.4502 54.9692 71.2261 52.7848 70.1814C46.8119 67.2899 41.5671 63.1848 37.2088 57.9823C33.6103 53.6451 31.2042 49.635 29.6107 45.3294C28.6293 42.7018 28.2705 40.6545 28.4288 38.7234C28.5344 37.4887 29.0092 36.465 29.8851 35.5892L33.4836 31.9906C34.0007 31.5052 34.5495 31.2414 35.0877 31.2414C35.7525 31.2414 36.2907 31.6424 36.6284 31.9801C36.6389 31.9906 36.6495 32.0012 36.66 32.0117C37.3038 32.6133 37.9158 33.2359 38.5596 33.9007C38.8867 34.2384 39.2244 34.5761 39.5621 34.9243L42.443 37.8053C43.5616 38.9239 43.5616 39.958 42.443 41.0766C42.137 41.3827 41.8415 41.6887 41.5355 41.9842C40.649 42.8917 39.8048 43.736 38.8867 44.5591C38.8656 44.5802 38.8445 44.5907 38.8339 44.6118C37.9264 45.5194 38.0952 46.4058 38.2852 47.0073C38.2957 47.039 38.3063 47.0707 38.3168 47.1023C39.0661 48.9174 40.1214 50.627 41.7254 52.6637L41.736 52.6742C44.6485 56.2622 47.7194 59.0587 51.1069 61.2009C51.5395 61.4753 51.9828 61.6969 52.4049 61.9079C52.7848 62.0979 53.1436 62.2773 53.4496 62.4672C53.4918 62.4884 53.534 62.52 53.5762 62.5411C53.935 62.7205 54.2727 62.8049 54.621 62.8049C55.4969 62.8049 56.0456 62.2562 56.225 62.0768L59.8341 58.4677C60.1929 58.1089 60.7627 57.6763 61.4276 57.6763C62.0818 57.6763 62.62 58.0878 62.9472 58.4466C62.9577 58.4572 62.9577 58.4572 62.9683 58.4677L68.7829 64.2823C69.8698 65.3587 69.8698 66.4668 68.7934 67.5854Z" fill="white"/>
<path d="M52.5208 37.3937C55.2856 37.858 57.7972 39.1666 59.8023 41.1716C61.8073 43.1767 63.1053 45.6882 63.5802 48.4531C63.6963 49.1496 64.2978 49.635 64.9837 49.635C65.0681 49.635 65.142 49.6244 65.2264 49.6139C66.0073 49.4873 66.5244 48.7486 66.3978 47.9676C65.8279 44.6224 64.245 41.5726 61.8284 39.156C59.4118 36.7394 56.362 35.1565 53.0168 34.5866C52.2359 34.46 51.5077 34.9771 51.3705 35.7475C51.2334 36.5178 51.7399 37.2671 52.5208 37.3937Z" fill="white"/>
<path d="M75.4415 47.5562C74.5023 42.0477 71.9063 37.0351 67.9174 33.0461C63.9284 29.0571 58.9158 26.4611 53.4072 25.5219C52.6368 25.3847 51.9087 25.9124 51.7715 26.6827C51.6449 27.4636 52.162 28.1918 52.9429 28.329C57.8605 29.1626 62.3455 31.4948 65.9123 35.0511C69.4792 38.618 71.8008 43.1029 72.6345 48.0206C72.7506 48.7171 73.3521 49.2025 74.038 49.2025C74.1224 49.2025 74.1963 49.1919 74.2807 49.1814C75.0511 49.0653 75.5787 48.3266 75.4415 47.5562Z" fill="white"/>
</g>
<defs>
<clipPath id="clip0_1809_57">
<rect width="50" height="50" fill="white" transform="translate(25.5 25.5)"/>
</clipPath>
</defs>
</svg>
