<svg width="75" height="75" viewBox="0 0 75 75" fill="none" xmlns="http://www.w3.org/2000/svg">
<path d="M37.5 0C16.8224 0 0 16.8224 0 37.5C0 46.0598 2.95957 54.4314 8.33379 61.0729C8.85483 61.7168 9.79966 61.8164 10.4433 61.2952C11.0873 60.7742 11.1869 59.8296 10.6657 59.1855C5.72241 53.0766 3 45.375 3 37.5C3 18.4767 18.4767 3 37.5 3C56.5233 3 72 18.4767 72 37.5C72 56.5233 56.5233 72 37.5 72C29.625 72 21.9239 69.2776 15.8147 64.3343C15.1708 63.8136 14.2266 63.9129 13.7052 64.557C13.1842 65.2009 13.2838 66.1453 13.9279 66.6666C20.569 72.0404 28.9403 75 37.5 75C58.1776 75 75 58.1776 75 37.5C75 16.8224 58.1776 0 37.5 0Z" fill="white"/>
<path d="M52.7636 16.3961C53.2103 15.6985 53.0068 14.7707 52.3092 14.3241C47.8905 11.4953 42.7697 10 37.5 10C22.3363 10 10 22.3363 10 37.5C10 52.6636 22.3363 64.9999 37.5 64.9999C52.6636 64.9999 64.9999 52.6636 64.9999 37.5C64.9999 31.0883 62.7457 24.8469 58.6523 19.9255C58.1225 19.2884 57.1768 19.2017 56.5398 19.7315C55.9028 20.2611 55.8161 21.2069 56.3459 21.844C59.9919 26.2278 61.9999 31.7878 61.9999 37.5C61.9999 51.0093 51.0093 61.9999 37.5 61.9999C23.9906 61.9999 13 51.0093 13 37.5C13 23.9906 23.9906 13 37.5 13C42.1954 13 46.7567 14.3315 50.6916 16.8508C51.389 17.2974 52.3167 17.0941 52.7636 16.3961Z" fill="white"/>
<path d="M42 31.5C42 32.3284 42.6716 33 43.5 33C44.3284 33 45 32.3284 45 31.5C45 27.8781 42.4192 24.8479 39 24.1511V21.5C39 20.6716 38.3284 20 37.5 20C36.6716 20 36 20.6716 36 21.5V24.1511C32.5808 24.8479 30 27.8781 30 31.5C30 35.122 32.5808 38.1522 36 38.849V47.7421C34.2542 47.1229 33 45.4556 33 43.5C33 42.6717 32.3284 42 31.5 42C30.6716 42 30 42.6717 30 43.5C30 47.122 32.5808 50.1522 36 50.849V53.5001C36 54.3285 36.6716 55.0001 37.5 55.0001C38.3284 55.0001 39 54.3285 39 53.5001V50.849C42.4192 50.1522 45 47.122 45 43.5C45 39.8781 42.4192 36.8479 39 36.1511V27.258C40.7458 27.8772 42 29.5445 42 31.5ZM36 35.7421C34.2542 35.1229 33 33.4556 33 31.5C33 29.5445 34.2542 27.8772 36 27.258V35.7421ZM42 43.5C42 45.4556 40.7458 47.1229 39 47.7421V39.2582C40.7458 39.8772 42 41.5445 42 43.5Z" fill="white"/>
</svg>
