<svg width="70" height="70" viewBox="0 0 70 70" fill="none" xmlns="http://www.w3.org/2000/svg">
<g clip-path="url(#clip0_1597_1179)">
<path d="M11.6667 61.2499C10.0625 61.2499 8.68972 60.6792 7.54833 59.5378C6.40694 58.3964 5.83527 57.0227 5.83333 55.4166V23.3333C5.83333 21.7291 6.405 20.3563 7.54833 19.2149C8.69166 18.0735 10.0644 17.5019 11.6667 17.4999H23.3333V11.6666C23.3333 10.0624 23.905 8.68964 25.0483 7.54825C26.1917 6.40686 27.5644 5.8352 29.1667 5.83325H40.8333C42.4375 5.83325 43.8112 6.40492 44.9546 7.54825C46.0979 8.69159 46.6686 10.0644 46.6667 11.6666V17.4999H58.3333C59.9375 17.4999 61.3112 18.0716 62.4546 19.2149C63.5979 20.3583 64.1686 21.731 64.1667 23.3333V55.4166C64.1667 57.0208 63.596 58.3945 62.4546 59.5378C61.3132 60.6812 59.9394 61.2519 58.3333 61.2499H11.6667ZM29.1667 17.4999H40.8333V11.6666H29.1667V17.4999Z" fill="#02ADEA"/>
</g>
<defs>
<clipPath id="clip0_1597_1179">
<rect width="70" height="70" fill="white"/>
</clipPath>
</defs>
</svg>
