<svg width="126" height="125" viewBox="0 0 126 125" fill="none" xmlns="http://www.w3.org/2000/svg">
<path fill-rule="evenodd" clip-rule="evenodd" d="M26.5028 102.496H18.6367C13.8308 102.496 9.89893 98.5642 9.89893 93.7583V68.8527C9.89893 67.7704 10.7776 66.8919 11.8597 66.8919C12.9421 66.8919 13.8205 67.7704 13.8205 68.8527V93.7583C13.8205 96.4074 15.9877 98.5745 18.6367 98.5745H22.0962C21.8051 98.3221 21.5229 98.0596 21.2506 97.7873C18.3433 94.8802 16.5418 90.8637 16.5418 86.4373V67.2625C16.5418 65.1539 17.4354 63.2473 18.8636 61.9022C16.5776 60.3037 15.0823 57.652 15.0823 54.6507C15.0823 49.7674 19.0413 45.8086 23.9249 45.8086C28.8082 45.8086 32.7671 49.7674 32.7671 54.6507C32.7671 57.6507 31.2732 60.3017 28.9889 61.9003C30.4163 63.2402 31.308 65.1417 31.308 67.2625V67.8971L35.4528 70.5716H51.2313C54.2354 70.5716 56.6707 73.0069 56.6707 76.011C56.6707 76.5373 56.596 77.0461 56.4565 77.5272H69.5433C69.4038 77.0461 69.3291 76.5373 69.3291 76.011C69.3291 73.0069 71.7644 70.5716 74.7685 70.5716H90.547L94.6918 67.8971V67.2625C94.6918 65.1417 95.5837 63.2402 97.0112 61.9005C94.7266 60.3017 93.2327 57.6507 93.2327 54.6507C93.2327 49.7674 97.1913 45.8086 102.075 45.8086C106.958 45.8086 110.917 49.7674 110.917 54.6507C110.917 57.652 109.422 60.3037 107.136 61.9022C108.564 63.2473 109.458 65.1539 109.458 67.2625V86.4373C109.458 90.8637 107.657 94.8802 104.749 97.7873C104.477 98.0596 104.195 98.3221 103.904 98.5745H107.363C110.012 98.5745 112.179 96.4074 112.179 93.7583V68.8527C112.179 67.7704 113.058 66.8919 114.14 66.8919C115.222 66.8919 116.101 67.7704 116.101 68.8527V93.7583C116.101 98.5642 112.169 102.496 107.363 102.496H99.497V121.324C99.497 122.406 98.6193 123.284 97.5362 123.284H92.9617C91.8788 123.284 91.0009 122.406 91.0009 121.324V102.496H88.7592C88.4028 102.496 88.1678 102.7 87.983 102.968C87.7212 103.347 87.5391 103.825 87.3872 104.341L82.2335 121.876C81.9881 122.711 81.2222 123.284 80.3524 123.284H45.6475C44.7776 123.284 44.0117 122.711 43.7663 121.876L38.6127 104.341C38.4609 103.825 38.2788 103.347 38.0168 102.968C37.832 102.7 37.597 102.496 37.2408 102.496H34.9989V121.324C34.9989 122.406 34.1212 123.284 33.0384 123.284H28.4636C27.3808 123.284 26.5028 122.406 26.5028 121.324V102.496ZM27.1747 66.0718C26.6854 64.7493 25.4033 63.8172 23.9085 63.8172C22.0109 63.8172 20.4634 65.365 20.4634 67.2625V86.4373C20.4634 89.7826 21.8264 92.8172 24.0234 95.0142C25.4075 96.3983 27.1234 97.4517 29.0403 98.0414C30.1666 98.3882 31.3624 98.5745 32.6006 98.5745H37.2408C39.931 98.5745 41.5661 100.482 42.3751 103.236L47.1149 119.363H51.1051L46.6082 104.351C44.3055 96.6635 41.2585 91.6512 34.3886 91.6512H32.6006C31.1698 91.6512 29.8653 91.0669 28.918 90.1196C27.971 89.1723 27.3864 87.8679 27.3864 86.4373V78.2966C25.6514 77.177 23.9303 76.0664 23.9323 76.0677C21.4075 74.4471 20.6744 71.0865 22.295 68.5618C23.3911 66.8539 25.283 65.9659 27.1747 66.0718ZM31.0776 102.424C30.8585 102.403 30.6408 102.378 30.4244 102.349V119.363H31.0776V102.424ZM51.2943 77.5272C52.1033 77.4944 52.7492 76.8282 52.7492 76.011C52.7492 75.1728 52.0698 74.4931 51.2313 74.4931H34.2975L27.6815 70.224C26.9796 69.7743 26.0457 69.9782 25.5952 70.6799C25.1445 71.3821 25.3484 72.3167 26.0524 72.7686L33.0477 77.2826C33.3026 77.4458 33.5877 77.5238 33.8695 77.5253L51.2943 77.5272ZM37.8055 81.4476L33.8592 81.4468H33.8555C32.9899 81.4434 32.1158 81.236 31.308 80.8047V86.4373C31.308 86.7912 31.4568 87.1123 31.6911 87.3468C31.9256 87.5811 32.2465 87.7297 32.6006 87.7297H34.3886C41.3269 87.7297 45.5259 91.4314 48.4168 97.8802V86.3998H39.7992C38.7163 86.3998 37.8384 85.5221 37.8384 84.439V81.4485C37.8274 81.4483 37.8166 81.4478 37.8055 81.4476ZM84.2399 81.4488H41.76V82.4784H84.2399V81.4488ZM98.8254 66.0716C100.717 65.9659 102.609 66.8539 103.705 68.5618C105.325 71.0865 104.592 74.4471 102.071 76.0652L98.6134 78.2966V86.4373C98.6134 87.8679 98.0291 89.1721 97.0823 90.1194L97.0818 90.1199C96.134 91.0672 94.8298 91.6512 93.3992 91.6512H91.6112C84.7416 91.6512 81.6945 96.6635 79.3916 104.351L74.895 119.363H75.6222H78.885L83.6247 103.236C84.4337 100.482 86.0688 98.5745 88.7592 98.5745H93.3992C94.6374 98.5745 95.8332 98.3882 96.9597 98.0414C98.8766 97.4517 100.592 96.3983 101.976 95.0142C104.173 92.8172 105.537 89.7826 105.537 86.4373V67.2625C105.537 65.365 103.989 63.8172 102.091 63.8172C100.597 63.8172 99.3149 64.7493 98.8254 66.0716ZM94.6918 80.8049C93.8852 81.2358 93.01 81.4434 92.1406 81.4468L88.1943 81.4476C88.1832 81.4478 88.1725 81.4483 88.1614 81.4485V84.439C88.1614 85.5221 87.2835 86.3998 86.2006 86.3998H77.583V97.8802C80.4742 91.4314 84.673 87.7297 91.6112 87.7297H93.3992C93.7533 87.7297 94.0744 87.5811 94.309 87.3468C94.5433 87.1123 94.6918 86.7912 94.6918 86.4373V80.8049ZM74.7055 77.5272L92.1305 77.5253C92.4122 77.5238 92.6972 77.4458 92.9519 77.2826L99.9475 72.7686L99.9494 72.7674C100.652 72.3167 100.855 71.3821 100.405 70.6799C99.9541 69.978 99.0202 69.7743 98.318 70.224L91.7024 74.4931H74.7685C73.9303 74.4931 73.2506 75.1728 73.2506 76.011C73.2506 76.8282 73.8965 77.4944 74.7055 77.5272ZM95.5756 102.349C95.3592 102.378 95.1413 102.403 94.9225 102.424V119.363H95.5756V102.349ZM55.1987 119.363H70.8014L73.6617 109.814V86.3998H52.3384V109.814L55.1987 119.363ZM102.075 49.7299C99.3573 49.7299 97.1541 51.9331 97.1541 54.6507C97.1541 57.3684 99.3573 59.5716 102.075 59.5716C104.793 59.5716 106.996 57.3684 106.996 54.6507C106.996 51.9331 104.793 49.7299 102.075 49.7299ZM23.9249 49.7299C21.2073 49.7299 19.0038 51.9331 19.0038 54.6507C19.0038 57.3684 21.2073 59.5716 23.9249 59.5716C26.6426 59.5716 28.8457 57.3684 28.8457 54.6507C28.8457 51.9331 26.6426 49.7299 23.9249 49.7299ZM79.3781 40.2147C79.3781 44.0481 76.2514 47.1743 72.4183 47.1743H50.6524L41.4494 56.7547C40.895 57.3316 40.0457 57.514 39.3033 57.2152C38.5609 56.9164 38.0747 56.1966 38.0747 55.3963V47.1743H35.8051C31.9717 47.1743 28.8457 44.0483 28.8457 40.2147V8.67526C28.8457 4.84217 31.9717 1.7157 35.8051 1.7157H72.4183C76.2514 1.7157 79.3781 4.84217 79.3781 8.67526V40.2147ZM75.4565 40.2147V8.67526C75.4565 7.00197 74.0916 5.63727 72.4183 5.63727H35.8051C34.1318 5.63727 32.7671 7.00197 32.7671 8.67526V40.2147C32.7671 41.888 34.1318 43.2527 35.8051 43.2527H40.0354C41.1183 43.2527 41.9962 44.1304 41.9962 45.2135V50.5248L48.4029 43.8552C48.7727 43.4701 49.2832 43.2527 49.8171 43.2527H72.4183C74.0916 43.2527 75.4565 41.8882 75.4565 40.2147ZM41.8668 21.8022L40.0234 23.0782C39.1335 23.6941 37.9112 23.4716 37.2952 22.5819C36.6793 21.6919 36.9016 20.4696 37.7916 19.8537L53.0499 9.29217C53.7274 8.82305 54.6259 8.82771 55.2987 9.30393L70.4492 20.0275C71.3325 20.6527 71.5421 21.8775 70.9168 22.7608C70.2916 23.6441 69.0668 23.8537 68.1835 23.2284C68.1835 23.2284 67.5129 22.7537 66.4646 22.0118V33.0454C66.4646 35.8728 64.1499 38.1833 61.3222 38.1833H47.0092C44.1815 38.1833 41.8668 35.8728 41.8668 33.0454V21.8022ZM62.543 19.236C60.593 17.8559 54.1533 13.2978 54.1533 13.2978L45.7884 19.0878V33.0454C45.7884 33.7157 46.3389 34.2618 47.0092 34.2618H48.9144V24.1931C48.9144 23.1103 49.7923 22.2324 50.8752 22.2324H57.4565C58.5394 22.2324 59.4173 23.1103 59.4173 24.1931V34.2618H61.3222C61.9928 34.2618 62.543 33.7157 62.543 33.0454V19.236ZM52.8359 34.2618H55.4957V26.1539H52.8359V34.2618Z" fill="#02ADEA"/>
</svg>
