<svg width="70" height="70" viewBox="0 0 70 70" fill="none" xmlns="http://www.w3.org/2000/svg">
<path d="M15.75 0C18.0706 0 20.2962 1.15234 21.9372 3.20352C23.5781 5.2547 24.5 8.03669 24.5 10.9375C24.5 13.8383 23.5781 16.6203 21.9372 18.6715C20.2962 20.7227 18.0706 21.875 15.75 21.875C13.4294 21.875 11.2038 20.7227 9.56282 18.6715C7.92187 16.6203 7 13.8383 7 10.9375C7 8.03669 7.92187 5.2547 9.56282 3.20352C11.2038 1.15234 13.4294 0 15.75 0ZM56 0C58.3206 0 60.5462 1.15234 62.1872 3.20352C63.8281 5.2547 64.75 8.03669 64.75 10.9375C64.75 13.8383 63.8281 16.6203 62.1872 18.6715C60.5462 20.7227 58.3206 21.875 56 21.875C53.6794 21.875 51.4538 20.7227 49.8128 18.6715C48.1719 16.6203 47.25 13.8383 47.25 10.9375C47.25 8.03669 48.1719 5.2547 49.8128 3.20352C51.4538 1.15234 53.6794 0 56 0ZM0 40.8379C0 32.7852 5.22812 26.25 11.6703 26.25H16.3406C18.0797 26.25 19.7313 26.7285 21.2188 27.5762C21.0766 28.5605 21.0109 29.5859 21.0109 30.625C21.0109 35.8477 22.8484 40.5371 25.7469 43.75H2.32969C1.05 43.75 0 42.4375 0 40.8379ZM44.3297 43.75H44.2531C47.1625 40.5371 48.9891 35.8477 48.9891 30.625C48.9891 29.5859 48.9125 28.5742 48.7812 27.5762C50.2687 26.7148 51.9203 26.25 53.6594 26.25H58.3297C64.7719 26.25 70 32.7852 70 40.8379C70 42.4512 68.95 43.75 67.6703 43.75H44.3297ZM24.5 30.625C24.5 27.144 25.6062 23.8056 27.5754 21.3442C29.5445 18.8828 32.2152 17.5 35 17.5C37.7848 17.5 40.4555 18.8828 42.4246 21.3442C44.3938 23.8056 45.5 27.144 45.5 30.625C45.5 34.106 44.3938 37.4444 42.4246 39.9058C40.4555 42.3672 37.7848 43.75 35 43.75C32.2152 43.75 29.5445 42.3672 27.5754 39.9058C25.6062 37.4444 24.5 34.106 24.5 30.625ZM14 66.3496C14 56.2871 20.5297 48.125 28.5797 48.125H41.4203C49.4703 48.125 56 56.2871 56 66.3496C56 68.3594 54.6984 70 53.0797 70H16.9203C15.3125 70 14 68.373 14 66.3496Z" fill="#02ADEA"/>
</svg>
