<svg width="28" height="28" viewBox="0 0 28 28" fill="none" xmlns="http://www.w3.org/2000/svg">
<path d="M14.2309 0.00298426C14.1938 0.00165792 14.1567 0 14.1192 0C14.1063 0 14.0933 0.00066319 14.0804 0.000994754C14.0536 0.00066319 14.027 0 14.0002 0C6.28054 0 0 6.28021 0 13.9998C0 21.7195 6.28054 28 14.0002 28C14.027 28 14.0536 27.9993 14.0804 27.999C14.0933 27.9993 14.1063 28 14.1192 28C14.1567 28 14.1938 27.9983 14.2309 27.997C21.8445 27.8733 28 21.6425 28 13.9998C28 6.35747 21.8445 0.126665 14.2309 0.00298426ZM24.2591 8.90902H20.0781C19.8102 7.29586 19.4133 5.80903 18.901 4.52779C18.7445 4.13652 18.578 3.76945 18.4033 3.42593C20.9505 4.49065 23.0339 6.44998 24.2591 8.90902ZM25.4548 13.9998C25.4548 14.8746 25.3556 15.7264 25.1693 16.5454H20.3848C20.4495 15.7141 20.483 14.8629 20.483 13.9998C20.483 13.1371 20.4495 12.2859 20.3848 11.4546H25.1693C25.3556 12.2736 25.4548 13.1254 25.4548 13.9998ZM14.164 25.4524C14.1404 25.4528 14.1172 25.4531 14.094 25.4534C13.3406 25.4282 12.4046 24.2856 11.7013 22.5269C11.2981 21.5192 10.9764 20.3397 10.7433 19.0741H17.4954C17.2623 20.3397 16.9407 21.5192 16.5375 22.5269C15.8398 24.271 14.9137 25.409 14.164 25.4524ZM10.4074 16.5454C10.3378 15.7191 10.301 14.8676 10.301 13.9998C10.301 13.1324 10.3378 12.2809 10.4074 11.4546H17.8313C17.9009 12.2809 17.9374 13.1324 17.9374 13.9998C17.9374 14.8676 17.9009 15.7191 17.8313 16.5454H10.4074ZM2.54558 13.9998C2.54558 13.1254 2.64439 12.2564 2.83107 11.4377H7.85425C7.78959 12.269 7.75576 13.1371 7.75576 13.9998C7.75576 14.8629 7.78959 15.7141 7.85425 16.5454H2.83107C2.64439 15.7264 2.54558 14.8746 2.54558 13.9998ZM14.094 2.54657C14.1172 2.5469 14.1404 2.54723 14.164 2.54756C14.9137 2.591 15.8398 3.729 16.5375 5.47314C16.9407 6.48082 17.2623 7.64336 17.4954 8.90902H10.7433C10.9764 7.64336 11.2981 6.48082 11.7013 5.47314C12.4046 3.71441 13.3406 2.57177 14.094 2.54657ZM9.89747 3.30557C9.69985 3.68324 9.51283 4.09043 9.33775 4.52779C8.82546 5.80903 8.42888 7.29586 8.16063 8.90902H3.74127C5.01422 6.35416 7.21362 4.33878 9.89747 3.30557ZM3.74094 19.091H8.16063C8.42855 20.7041 8.82546 22.191 9.33775 23.4722C9.51283 23.9096 9.69985 24.3168 9.89747 24.6944C7.21362 23.6612 5.01422 21.6462 3.74094 19.091ZM18.4033 24.5741C18.578 24.2305 18.7445 23.8635 18.901 23.4722C19.4133 22.191 19.8099 20.6872 20.0781 19.0741H24.2591C23.0339 21.5331 20.9505 23.5093 18.4033 24.5741Z" fill="white"/>
</svg>
