<svg width="29" height="29" viewBox="0 0 29 29" fill="none" xmlns="http://www.w3.org/2000/svg">
<path d="M14.3632 0.920953C14.326 0.919627 14.2889 0.917969 14.2514 0.917969C14.2385 0.917969 14.2255 0.918632 14.2126 0.918964C14.1858 0.918632 14.1592 0.917969 14.1324 0.917969C6.41275 0.917969 0.132202 7.19818 0.132202 14.9178C0.132202 22.6374 6.41275 28.918 14.1324 28.918C14.1592 28.918 14.1858 28.9173 14.2126 28.917C14.2255 28.9173 14.2385 28.918 14.2514 28.918C14.2889 28.918 14.326 28.9163 14.3632 28.915C21.9767 28.7913 28.1322 22.5605 28.1322 14.9178C28.1322 7.27544 21.9767 1.04463 14.3632 0.920953ZM24.3913 9.82698H20.2103C19.9424 8.21383 19.5455 6.727 19.0332 5.44576C18.8767 5.05449 18.7102 4.68742 18.5355 4.3439C21.0827 5.40862 23.1661 7.36795 24.3913 9.82698ZM25.587 14.9178C25.587 15.7925 25.4878 16.6444 25.3015 17.4634H20.517C20.5817 16.6321 20.6152 15.7809 20.6152 14.9178C20.6152 14.055 20.5817 13.2038 20.517 12.3726H25.3015C25.4878 13.1916 25.587 14.0434 25.587 14.9178ZM14.2962 26.3704C14.2726 26.3707 14.2494 26.3711 14.2262 26.3714C13.4728 26.3462 12.5368 25.2036 11.8335 23.4448C11.4303 22.4371 11.1086 21.2577 10.8755 19.992H17.6276C17.3945 21.2577 17.0729 22.4371 16.6697 23.4448C15.972 25.189 15.0459 26.327 14.2962 26.3704ZM10.5396 17.4634C10.47 16.6371 10.4332 15.7856 10.4332 14.9178C10.4332 14.0504 10.47 13.1989 10.5396 12.3726H17.9635C18.0331 13.1989 18.0696 14.0504 18.0696 14.9178C18.0696 15.7856 18.0331 16.6371 17.9635 17.4634H10.5396ZM2.67778 14.9178C2.67778 14.0434 2.77659 13.1743 2.96327 12.3556H7.98645C7.92179 13.1869 7.88797 14.055 7.88797 14.9178C7.88797 15.7809 7.92179 16.6321 7.98645 17.4634H2.96327C2.77659 16.6444 2.67778 15.7925 2.67778 14.9178ZM14.2262 3.46454C14.2494 3.46487 14.2726 3.4652 14.2962 3.46553C15.0459 3.50897 15.972 4.64697 16.6697 6.3911C17.0729 7.39879 17.3945 8.56133 17.6276 9.82698H10.8755C11.1086 8.56133 11.4303 7.39879 11.8335 6.3911C12.5368 4.63238 13.4728 3.48974 14.2262 3.46454ZM10.0297 4.22354C9.83205 4.60121 9.64503 5.0084 9.46996 5.44576C8.95766 6.727 8.56108 8.21383 8.29283 9.82698H3.87347C5.14642 7.27212 7.34583 5.25675 10.0297 4.22354ZM3.87314 20.009H8.29283C8.56075 21.6221 8.95766 23.1089 9.46996 24.3902C9.64503 24.8275 9.83205 25.2347 10.0297 25.6124C7.34583 24.5792 5.14642 22.5641 3.87314 20.009ZM18.5355 25.492C18.7102 25.1485 18.8767 24.7815 19.0332 24.3902C19.5455 23.1089 19.9421 21.6052 20.2103 19.992H24.3913C23.1661 22.4511 21.0827 24.4273 18.5355 25.492Z" fill="black"/>
</svg>
